# xmcd
#
# Track frame offsets: 
#        150
#        11905
#        31843
#        46050
#        58290
#        64930
#        77140
#        92325
#        112815
#        120688
#        133530
#        150475
#        167028
#        186820
#        198835
#
# Disc length: 2747 seconds
#
# Revision: 5
# Processed by: cddbd v1.5.2PL0 Copyright (c) Steve Scherf et al.
# Submitted via: ExactAudioCopy v0.99pb5
#
DISCID=bb0ab90f
DTITLE=Riders In The Sky - The Cowboy Way
DYEAR=1987
DGENRE=Country
TTITLE0=Texas Plains
TTITLE1=Back In The Saddle Again
TTITLE2=Riders In The Sky
TTITLE3=Carry Me Back To The Lone Prairie
TTITLE4=Mr. Sincere (State Fair Burnout)
TTITLE5=Concerto For Violins And Longhorns
TTITLE6=Lonely Yukon Stars
TTITLE7=The Salting Of The Slug
TTITLE8=When Pay Day Rolls Around
TTITLE9=My Oklahoma
TTITLE10=Reincarnation
TTITLE11=Miss Molly
TTITLE12=Ridin' Down The Canyon (When The Desert Sun Goes Down)
TTITLE13=That's How The Yodel Was Born
TTITLE14=Happy Trails
EXTD=
EXTT0=
EXTT1=
EXTT2=
EXTT3=
EXTT4=
EXTT5=
EXTT6=
EXTT7=
EXTT8=
EXTT9=
EXTT10=
EXTT11=
EXTT12=
EXTT13=
EXTT14=
PLAYORDER=
